<?xml version="1.0" encoding="utf-8"?>
<!-- Generator: Adobe Illustrator 24.0.2, SVG Export Plug-In . SVG Version: 6.00 Build 0)  -->
<svg version="1.1" id="Circulo" xmlns="http://www.w3.org/2000/svg" xmlns:xlink="http://www.w3.org/1999/xlink" x="0px" y="0px"
	 viewBox="0 0 238.1 238.1" style="enable-background:new 0 0 238.1 238.1;" xml:space="preserve">
<style type="text/css">
	.st0{fill:#FFFFFF;stroke:#53B4C7;stroke-width:8;stroke-linecap:round;stroke-miterlimit:10;}
	.st1{fill:none;stroke:#53B4C7;stroke-width:15;stroke-linecap:round;stroke-miterlimit:10;}
	.st2{fill:#53B4C7;stroke:#53B4C7;stroke-width:2;stroke-linecap:round;stroke-miterlimit:10;}
	.st3{stroke:#1D1D1B;stroke-width:2;stroke-linecap:round;stroke-miterlimit:10;}
	.st4{fill:none;stroke:#1D1D1B;stroke-width:2;stroke-linecap:round;stroke-miterlimit:10;}
	.st5{fill:none;stroke:#53B4C7;stroke-width:2;stroke-linecap:round;stroke-miterlimit:10;}
	.st6{display:none;fill:#008EAD;stroke:#008EAD;stroke-width:2;stroke-linecap:round;stroke-miterlimit:10;}
	.st7{fill:none;stroke:#FFFFFF;stroke-width:8;stroke-linecap:round;stroke-miterlimit:10;}
	.st8{fill:none;stroke:#FFFFFF;stroke-width:7;stroke-linecap:round;stroke-miterlimit:10;}
</style>
<circle class="st0" cx="119.1" cy="119.1" r="115.1"/>
<line class="st1" x1="166.1" y1="18.3" x2="135.3" y2="101.5"/>
<line class="st1" x1="106.9" y1="132.4" x2="74.7" y2="219.2"/>
<path class="st2" d="M102,133.1c-0.5-3.3,1.1-6.6,4-8.3c2.5-1.5,5.1-3.1,5.1-3.1c1.2-0.7,2.5-1.4,3.6-2.2c1.2-0.8,1.5-1.2,2-1.2
	c1.4,0.2,2,3.7,2.4,5.5c0,0,1.2,5.8,4.6,12.7c2.4,4.9,7.8,10.6,15.4,11.8c8.9,1.4,15.7-4.4,17-5.5c6.1-5.2,7.5-12,7.9-14.2
	c0.4-2.2,1.9-10.1-2.4-16.6c-1-1.5-5-7.4-9.8-8.9c-0.4-0.1-1.6-0.4-2.2-1.4c-0.9-1.6,4.9-15.4,5.8-15.8c1.1-0.6,2.8,0.3,5,1.9
	c5.6,3.9,8.6,7.2,8.6,7.2c4.2,4.2,6.5,8.3,7.2,9.4c2.2,3.6,3,4.6,5.4,10.5c1.8,4.4,0.8,16.3-0.1,19.7c-1.7,7.1-4.9,11.9-6,13.4
	c-0.8,1.1-4.5,6.3-11.3,10.8c-6.8,4.5-13,5.9-14.9,6.2c-4.8,1-8.6,0.8-10.3,0.7c-6.4-0.4-11.1-2.3-13-3.1c-4.7-2.1-7.7-4.6-10.3-6.7
	c-2-1.7-5.4-4.5-8.2-8.4C104.2,142.8,102.6,137.5,102,133.1z"/>
<path class="st3" d="M90.3,110.2"/>
<path class="st2" d="M139,108.6c-1,1.6-0.7,0-7.7,3.5c-2.4,1.2-3.6,1.8-3.6,1.8c-1.6,1-1.9,1.3-2.4,1.2c-1.2-0.3-1.2-3.3-1.7-7.4
	c-0.5-3.8-0.7-6.1-1.4-8.2c-2-5.9-7.2-9-8.9-10.1c-0.8-0.5-4.4-2.7-9.8-3.4c-1.4-0.2-5-0.6-9.1,0.5c-6.5,1.7-12.7,6.7-15.6,13.9
	c-0.4,0.9-3.4,8.9,0,17.5c0,0,2.3,5.7,7.2,9.8c1.5,1.3,2.9,2.1,2.9,2.1c2,1.2,2.3,0.9,2.8,1.5c1.5,1.7-2.5,14.5-4.1,15.6
	c-0.9,0.6-1.9,0.8-1.9,0.8s-5.5-1.6-8.1-4c-2.6-2.4-2.9-2.4-3.8-3.4c-10-9.7-12.5-22.8-12.5-22.8c-0.9-4.7-2-15,3.4-25.7
	c0.8-1.5,4.4-8.7,12.5-14.6c8.5-6.3,16.9-7.6,19-7.9c3-0.4,11.1-1.2,20.2,2.4c3.4,1.4,9,3.6,13.4,9.1c0.9,1.1,2.7,2.8,4.8,8.9
	C139.3,104.2,140.1,106.9,139,108.6z"/>
<path class="st4" d="M147,88.6"/>
<path class="st4" d="M139.9,108.1"/>
<path class="st5" d="M125.9,115.2c2.9-1.3,5.8-2.7,8.8-4c1.2-0.5,2.3-1,2.3-1c0.5-0.2,1.1-0.5,1.8-0.8c0.8-0.3,0.8-0.3,0.8-0.3
	c1.2-0.6,1.6-2.1,1.8-2.6c1.3-4.3,3-8.5,4.5-12.8c0.4-1.1,0.6-1.8,0.9-2.5c1.6-4.6,3-7.8,3.4-8.6c1.4-3.3,3.9-9.9,8.8-23.2
	c5.4-14.5,10.3-27.9,13.5-36.9"/>
<path class="st6" d="M219.8,240c0.1-0.4,15.9-43.3,16-43.4c0,0,2-5.4,2-5.5c1.9-5.1,1.9-5.1,1.9-5.1c1.2-3.6,1.1-4.4,1.7-4.7
	c1.8-0.9,5,3.2,7.9,5.8c6,5.2,13.1,6.1,19.1,6.8c15.4,1.9,27.4-5.5,31.3-7.9c4.4-2.7,12.8-8.1,18-18.7c0.7-1.4,4-8.4,4.3-18.4
	c0.3-8.9-2.1-15.5-3.6-19.4c0,0-5.1-13.8-15.1-22.3c-2-1.7-4.2-3.3-4.2-3.3c-0.7-0.5-1.8-1.3-3.4-2.2c-2.3-1.4-3.3-1.1-3.9-2.1
	c-0.8-1.4,0.1-3.3,0.4-4c4.2-9.5,6.5-19.7,10.3-29.3c0.8-2,1.4-3.5,1.6-4.2c0.4-1.2,1.1-3.2,1.9-5.6c1.2-3.7,0.8-4.1,1.3-4.4
	c2.5-1.7,11.8,6.9,18.7,14.8c1.7,1.9,7.6,8.6,13.7,19.1c7.2,12.5,10.4,22.9,11.2,25.6c3.2,10.8,3.8,19.3,4,21.2
	c0.2,2.5,0.6,10.2-0.7,20.2c-0.4,2.8-1.4,9.6-4,17.6c-7.4,23.3-21.5,38.3-24.5,41.4c-2.8,2.9-10.3,10.4-22,17.3
	c-9.8,5.9-18.4,8.8-22.3,10.1c-18.1,5.7-32.9,5-37.4,4.7C235.5,243.4,224.7,241.4,219.8,240"/>
<line class="st7" x1="144.1" y1="112" x2="181.5" y2="8.8"/>
<line class="st8" x1="61.5" y1="226.7" x2="99" y2="123.5"/>
</svg>
